<svg width="41" height="41" fill="none" xmlns="http://www.w3.org/2000/svg"><path d="M2.284 41H1.2A1.201 1.201 0 0 1 0 39.799v-1.083c0-2.898.74-5.771 2.14-8.31A17.31 17.31 0 0 1 8 24.172a1.201 1.201 0 0 1 1.493.164l7.17 7.17c.399.398.467 1.019.165 1.494a17.31 17.31 0 0 1-6.235 5.86A17.255 17.255 0 0 1 2.283 41Z" fill="#FF9737"/><path d="M1.201 41h1.083c2.898 0 5.771-.74 8.31-2.14A17.31 17.31 0 0 0 16.827 33a1.2 1.2 0 0 0-.164-1.493l-3.585-3.586L.352 40.648c.217.217.517.352.85.352Z" fill="#FF6108"/><path d="M25.82 39.032a1.2 1.2 0 0 1-1.075-.664l-3.53-7.062c-.261-.521-.11-1.153.356-1.501l10.436-7.77a1.2 1.2 0 0 1 1.915.87 17.193 17.193 0 0 1-4.988 13.51l-2.265 2.265a1.201 1.201 0 0 1-.85.352Z" fill="#0167FF"/><path d="M10.231 19.913c-.181 0-.365-.041-.536-.127l-7.062-3.53a1.2 1.2 0 0 1-.313-1.925l2.266-2.264a17.194 17.194 0 0 1 13.51-4.99 1.201 1.201 0 0 1 .87 1.916l-7.77 10.436a1.2 1.2 0 0 1-.965.484Z" fill="#3685FB"/><path d="M39.532 13.171a12.385 12.385 0 0 1-8.099-3.604 12.384 12.384 0 0 1-3.604-8.1l-.022-.4A25.357 25.357 0 0 0 17.149 7.43l-.06.06A45.564 45.564 0 0 0 6.576 23.818c-.165.44-.058.938.275 1.27l9.06 9.06a1.2 1.2 0 0 0 1.271.276 45.564 45.564 0 0 0 16.33-10.515l.06-.06a25.356 25.356 0 0 0 6.36-10.657l-.399-.022Z" fill="#E6F3FF"/><path d="M15.91 34.15a1.2 1.2 0 0 0 1.271.275 45.565 45.565 0 0 0 16.33-10.515l.06-.06a25.355 25.355 0 0 0 6.361-10.657l-.4-.022a12.384 12.384 0 0 1-8.099-3.604L11.38 29.62l4.53 4.53Z" fill="#D2DCF0"/><path d="M40.59 1.376a1.201 1.201 0 0 0-.966-.967 25.355 25.355 0 0 0-12.647.923l.051.937a12.384 12.384 0 0 0 3.604 8.099 12.384 12.384 0 0 0 8.1 3.604l.936.051a25.359 25.359 0 0 0 .923-12.647Z" fill="#3685FB"/><path d="M30.632 10.367a12.385 12.385 0 0 0 8.1 3.605l.936.05a25.356 25.356 0 0 0 .923-12.646 1.199 1.199 0 0 0-.333-.635l-9.626 9.627Z" fill="#0167FF"/><path d="M25.253 20.952a5.171 5.171 0 0 1-3.68-1.525 5.17 5.17 0 0 1-1.525-3.68 5.17 5.17 0 0 1 1.525-3.68 5.171 5.171 0 0 1 3.68-1.525c1.39 0 2.698.541 3.68 1.524a5.17 5.17 0 0 1 1.525 3.68 5.17 5.17 0 0 1-1.524 3.681 5.171 5.171 0 0 1-3.68 1.525ZM8.832 33.369a1.201 1.201 0 0 1-.85-2.05l10.193-10.193a1.201 1.201 0 0 1 1.699 1.699L9.682 33.017a1.197 1.197 0 0 1-.85.352Z" fill="#3685FB"/><path d="M21.573 19.427a5.171 5.171 0 0 0 3.68 1.525 5.17 5.17 0 0 0 3.68-1.525 5.17 5.17 0 0 0 1.525-3.68 5.17 5.17 0 0 0-1.524-3.68l-7.361 7.36ZM7.983 33.017a1.198 1.198 0 0 0 1.699 0l10.192-10.192c.469-.47.469-1.23 0-1.699L7.983 33.017Z" fill="#0167FF"/><path d="M25.253 18.55a2.784 2.784 0 0 1-1.982-.821 2.784 2.784 0 0 1-.82-1.982c0-.749.291-1.453.82-1.982.53-.53 1.234-.82 1.982-.82.749 0 1.453.29 1.982.82.53.53.821 1.233.821 1.982 0 .748-.291 1.452-.82 1.982-.53.53-1.234.82-1.983.82Z" fill="#00F2D9"/><path d="M23.271 17.729c.53.53 1.233.82 1.982.82.749 0 1.453-.29 1.982-.82.53-.53.82-1.233.82-1.982 0-.749-.29-1.453-.82-1.982l-3.964 3.964Z" fill="#00B3A0"/></svg>