<svg width="41" height="41" fill="none" xmlns="http://www.w3.org/2000/svg"><path d="M2.284 41H1.2A1.201 1.201 0 010 39.799v-1.083c0-2.898.74-5.771 2.14-8.31A17.31 17.31 0 018 24.172a1.201 1.201 0 011.493.164l7.17 7.17A1.2 1.2 0 0116.828 33a17.31 17.31 0 01-6.235 5.86A17.255 17.255 0 012.283 41z" fill="#FF9737"/><path d="M1.201 41h1.083c2.898 0 5.771-.74 8.31-2.14A17.31 17.31 0 0016.827 33a1.2 1.2 0 00-.164-1.493l-3.585-3.586L.352 40.648c.217.217.517.352.85.352z" fill="#FF6108"/><path d="M25.82 39.032a1.2 1.2 0 01-1.075-.664l-3.53-7.062a1.202 1.202 0 01.356-1.501l10.436-7.77a1.2 1.2 0 011.915.87 17.193 17.193 0 01-4.988 13.51l-2.265 2.265a1.201 1.201 0 01-.85.352z" fill="#0167FF"/><path d="M10.231 19.913c-.181 0-.365-.041-.536-.127l-7.062-3.53a1.2 1.2 0 01-.313-1.925l2.266-2.264a17.194 17.194 0 0113.51-4.99 1.201 1.201 0 01.87 1.916l-7.77 10.436a1.2 1.2 0 01-.965.484z" fill="#3685FB"/><path d="M39.532 13.171a12.385 12.385 0 01-8.099-3.604 12.384 12.384 0 01-3.604-8.1l-.022-.4A25.357 25.357 0 0017.149 7.43l-.06.06A45.564 45.564 0 006.576 23.818a1.2 1.2 0 00.275 1.27l9.06 9.06a1.2 1.2 0 001.271.276 45.564 45.564 0 0016.33-10.515l.06-.06a25.356 25.356 0 006.36-10.657l-.399-.022z" fill="#E6F3FF"/><path d="M15.91 34.15a1.2 1.2 0 001.271.275 45.565 45.565 0 0016.33-10.515l.06-.06a25.355 25.355 0 006.361-10.657l-.4-.022a12.384 12.384 0 01-8.099-3.604L11.38 29.62l4.53 4.53z" fill="#D2DCF0"/><path d="M40.59 1.376a1.201 1.201 0 00-.966-.967 25.355 25.355 0 00-12.647.923l.051.937a12.384 12.384 0 003.604 8.099 12.384 12.384 0 008.1 3.604l.936.051a25.359 25.359 0 00.923-12.647z" fill="#3685FB"/><path d="M30.632 10.367a12.385 12.385 0 008.1 3.605l.936.05a25.356 25.356 0 00.923-12.646 1.199 1.199 0 00-.333-.635l-9.626 9.627z" fill="#0167FF"/><path d="M25.253 20.952a5.171 5.171 0 01-3.68-1.525 5.17 5.17 0 01-1.525-3.68 5.17 5.17 0 011.525-3.68 5.171 5.171 0 013.68-1.525c1.39 0 2.698.541 3.68 1.524a5.17 5.17 0 011.525 3.68 5.17 5.17 0 01-1.524 3.681 5.171 5.171 0 01-3.68 1.525zM8.832 33.369a1.201 1.201 0 01-.85-2.05l10.193-10.193a1.201 1.201 0 011.699 1.699L9.682 33.017a1.197 1.197 0 01-.85.352z" fill="#3685FB"/><path d="M21.573 19.427a5.171 5.171 0 003.68 1.525 5.17 5.17 0 003.68-1.525 5.17 5.17 0 001.525-3.68 5.17 5.17 0 00-1.524-3.68l-7.361 7.36zm-13.59 13.59a1.198 1.198 0 001.699 0l10.192-10.192c.469-.47.469-1.23 0-1.699L7.983 33.017z" fill="#0167FF"/><path d="M25.253 18.55a2.784 2.784 0 01-1.982-.821 2.784 2.784 0 01-.82-1.982c0-.749.291-1.453.82-1.982.53-.53 1.234-.82 1.982-.82.749 0 1.453.29 1.982.82.53.53.821 1.233.821 1.982 0 .748-.291 1.452-.82 1.982-.53.53-1.234.82-1.983.82z" fill="#00F2D9"/><path d="M23.271 17.729c.53.53 1.233.82 1.982.82a2.78 2.78 0 001.982-.82c.53-.53.82-1.233.82-1.982a2.78 2.78 0 00-.82-1.982l-3.964 3.964z" fill="#00B3A0"/></svg>