<svg width="1029" height="690" fill="none" xmlns="http://www.w3.org/2000/svg"><path fill-rule="evenodd" clip-rule="evenodd" d="M938.714 212.465c-4.574-7.44-8.576-15.166-14.294-21.748-1.715-2.003-3.144-4.292-2.858-7.153 0-1.145-.286-2.576-.858-3.434-2.001-3.148-2.859-7.154-6.289-9.443-1.144-.858-1.429-2.575-2.287-3.72-.858-1.431-2.001-2.003-3.716-2.003-.286 0-.858.286-1.144.859 0 0-.286.572 0 .572.286.286.572.858.858 1.144 2.573 2.862 2.573 2.862.286 6.582-.286.286-.572.858-.286 1.431.286.858.572 1.716 1.143 2.575 1.716 2.289 2.001 4.864 2.573 7.44 0 .286-.286.858-.572 1.144-.285.573-1.429 0-1.429-1.144-.286-1.431-.572-2.862-1.715-4.006-.858-.573-1.144-1.717-1.144-2.576.286-2.289-1.143-3.72-2.858-4.578-2.859-1.717-6.003-3.148-8.862-5.437-.572-.286-1.429-.572-2.001-.572-1.144 0-2.573.286-3.716.286-1.43 0-2.287.572-2.573 2.003-.286 1.717-.858 3.148-2.287 4.292h-.858a53.346 53.346 0 01-2.858-5.723c0-.286-.572-.572-.572-.572-.286.286-.858.572-1.144.858-.857.859-.571 1.717-.285 2.576 0 .286-.286.858-.572 1.144-.572.287-.858 0-1.144-.572-.857-1.717-1.429-3.434-2.001-5.437-.571-1.717-1.429-2.003-3.43-1.43-.858.286-1.429.572-2.001.572h-2.287c-1.429 0-2.287-1.431-2.001-2.576.286-.572.572-1.43.857-2.003 1.144-2.003 2.287-4.292 3.717-6.295 1.429-2.289 2.858-4.578 2.858-7.154.572-4.864 2.287-9.156 4.288-13.735 1.43-2.861 2.859-6.009 2.001-9.729-.285-1.43 0-2.861.858-4.006 1.429-2.003 1.715-3.72.858-6.009-.286-.858 0-2.003.571-2.575 1.144-1.717 2.859-3.148 5.146-3.72 2.859-.572 5.717-2.003 8.576-2.862 1.143-.286 2.573-.286 3.716.287 1.429.572 2.573.572 3.145-.859.857-1.717 2.858-2.575 4.288-2.289 2.858.572 5.431-1.145 8.004-1.145.286 0 .858-.572 1.143-.858l.858-3.434c.286-1.145 1.715-2.003 2.859-2.003 3.43.286 6.86.572 10.577 1.145.571 0 1.429.572 2.001.858.286.286.572.859.286 1.145 0 .572-.572.858-.858 1.144-.572 1.145-.286 1.717.572 2.576.857.858 1.715 1.144 2.573.858 2.572-1.431 5.431-2.289 7.146-4.864.572-.859 1.43-1.145 2.573-.573 1.144.286 2.001 0 2.573-.858.858-1.145 2.858-1.43 2.287-3.434-.286-1.717-2.001-1.717-3.716-2.003h-.858c-.858 0-1.429-.572-1.715-1.145-1.144-2.575-1.43-5.15-.286-7.726.286-.572.286-.858.572-1.43 1.143-2.003 1.143-4.006 1.143-6.296 0-2.861.286-5.722 0-8.584-.286-2.003.858-3.72 3.145-4.578 1.715-.573 3.43-1.145 4.859-1.717 1.716-.859 3.145-1.145 5.146-.573 1.143.287 1.715-.286 2.573-.858.857-.572 1.715-.286 1.715.572.286 1.717.572 3.434.572 4.865 0 1.717 1.143 2.575 2.287 3.434 1.429.858 3.144 1.43 4.288 2.289.286.286 1.143 0 1.143-.286.572-.573.858-1.145 1.143-1.717.572-2.862 1.144-5.723 1.43-8.299.286-2.003 1.143-2.861 3.144-3.433 1.144-.286 1.144-1.431 1.144-2.29h.286l.286-.286h.285v-.286l-.285.286s-.286 0-.286.287c-.286 0-.286 0-.572-.287-3.43-2.575-4.574-6.295-5.146-10.015 0-.286.286-.572.286-.572.858-1.717 3.431-2.29 5.146-1.43.572.285 1.143 1.144.857 1.716-1.429 2.003-.857 4.006.286 6.01 1.43 2.574 3.145 4.864 2.859 8.011 0 .286.286.859.572 1.145 1.715 2.003.857 4.578 1.715 6.867-.286 1.717-2.001 2.862-2.859 4.007l-.571.572c-.858 1.144-1.43 2.289-1.43 4.006 0 3.72.572 7.44-1.143 11.16-.286.858-.286 2.003-.286 2.861 0 3.434-.286 7.154 0 10.588.286 2.861-.286 5.723-2.287 8.012-.572.572-.572 1.43-1.144 2.003-.285.572-1.143.858-1.715 1.43-2.001 1.431-2.287 1.717-.857 3.148 1.715 2.003 1.715 4.006 1.429 6.009-.286 1.145-.858 2.289-1.144 3.434-.571 1.717-.571 3.148-.571 4.865.286 2.861 1.715 5.436 2.573 8.298 2.572 9.157 8.29 16.883 13.435 24.609 1.43 2.289 3.145 4.292 4.574 6.581.858 1.431 1.715 3.148 2.859 4.006 1.715 1.431 2.858 3.148 3.716 5.151a3095.92 3095.92 0 012.568 6.009c.86 2.289 2.86 3.147 4.86 4.006.29 0 .58 0 .58-.286 1.43-1.145 1.43-2.862 2.28-4.292 2-3.72 2.29-7.44.58-11.733-1.72-4.292-2.29-5.436 2.85-8.012.29 0 .58-.286.58-.286.85-.572.85-1.144.57-1.717-.57-1.144-1.43-2.003-2-3.147-.58-.859-.86-1.717-.86-2.576 0-2.003 0-4.292.28-6.295.29-1.431 1.15-2.575 2.86-3.148 1.15-.572 2.29-.858 3.43-1.43.86-.573 1.43-2.29.58-3.148-1.15-1.431-2.29-2.575-3.44-3.72-3.14-3.148-4.28-6.867-3.43-11.16 0-.572.86-1.144 1.43-1.144.58 0 .86.286 1.43.286 1.43 0 2.86-1.717 2.29-2.862-.86-1.716-2.29-3.147-3.14-4.864-.86-1.717-1.72-2.003-3.43-1.717-.29 0-1.15-.286-1.15-.572-.86-2.003-2-3.72-1.14-6.009.28-.573.28-1.431 0-2.003 0-.573-.57-1.431-.86-2.003-1.14-1.145-2.57-1.717-4-1.717-.29 0-.86.286-1.15.572-.567.572-.853 1.145-1.139 1.431v.286h.286c0 .286 0 .286-.286 0h-.285v-.286c-1.43-.573-2.287-1.717-2.859-3.148-1.144-2.575-1.429-5.15-1.144-7.726.286-4.006 0-8.012-2.572-11.732-.286-.286-.286-.858-.572-1.43-.858-2.576.572-4.58 3.43-5.438h1.43c1.429 0 1.715-.286 2.001-1.716.286-1.145.286-2.29 1.143-3.148.567-.572 1.427-.572 1.717 0 .57 1.145 1.14 2.003 2 3.148.29.286.86.572 1.43.286.28 0 .86-.573 1.14-.859.29-1.144.57-2.289.86-3.433.29-1.717 1.43-3.148 2.57-4.293 1.43-1.717 3.72-2.289 6.01-2.861 1.43-.286 2.85.858 4 1.43 1.14.859 2.57 1.717 3.71 2.576.29.286.86.572 1.15.858.57.286 1.43.286 2.28.286.58 0 1.43-.858 1.43-1.43 0-1.717-1.43-3.148-.85-4.865.28-1.717.57-3.148 1.14-4.864.57-2.29 1.14-4.579 1.14-6.868.29-3.434 1.43-6.867 3.43-10.015 1.15-1.717 2-3.72 2.86-5.723 1.43-3.148 3.43-5.723 6.01-8.012.85-.859 2.28-1.145 3.43-1.145 1.71 0 3.43.286 5.14.286.86 0 1.43 0 2.29-.286.28 0 .86-.572.86-.858.28-3.148.28-6.296-2.86-8.585-.86-.572-1.15-1.717-1.72-2.289-.28-.572-.86-1.43-1.43-1.43-2.86-.86-4.86-3.148-7.72-3.72l-.57.286.29-.287c-.29-.858-.57-1.716-.86-2.575-.57-1.717-1.71-2.861-3.72-2.861-.57 0-1.14 0-1.14-.573-.28-.572-.28-.858-.57-1.43-1.14-2.003-1.72-2.576-4-2.29-2.29.573-3.72-.858-5.15-2.289-.57-.572-.28-1.717.29-1.717.86-.286 2-.572 2.86-.858 2.86-.859 4-2.575 4.28-5.15.29-2.862.29-5.724.29-8.585 0-.859-.29-2.003-.86-2.862-.57-1.144-1.43-2.003-1.71-3.147-.57-1.717-2-2.862-3.72-3.148-2-.286-3.14-1.43-4.29-2.861-.28-.573-.57-1.145-.28-2.004.28-.572.57-1.43.85-2.002.58-1.145 1.72-1.145 2.29-.287.57 1.717 1.72 2.862 3.43 3.72 4.58 2.29 4.86 2.003 7.15-2.575.28-.572.28-.858.57-1.43.86-1.145 2.29-2.004 3.72-2.29 1.14-.286 2 .572 2.57 1.145.86.858 1.71 1.717 2.57 2.575 1.43 1.43 3.15 1.717 4.86.858 1.43-.858 3.15-1.43 4.86-1.144 1.15 0 2.57.286 3.72.286.86 0 2-.286 2.86-.572.57 0 .85-.286 1.14-.859.29-.286.86-.858.57-1.144-.28-2.29-.28-4.865-3.71-5.151-1.15 0-1.43-1.145-1.72-2.003v-1.43c0-2.29-.29-4.293-2.86-5.438-1.14-.572-1.71-1.717-2.57-2.575-.86-1.145-1.14-1.43 0-2.29 2-1.43 2.86-3.433 3.43-5.436.29-.858 0-1.43-.29-2.003-2-2.29-2.86-4.865-2.86-8.012 0-.859-.57-1.43-1.42-1.43-.58 0-1.15.285-1.43.285-2.58-.572-5.15-1.43-8.01-1.717-.86 0-1.71-.858-2.57-1.43-1.43-.859-2.86-.573-4 .572-1.72 1.43-2.86 3.148-5.43 3.72-.29 0-.58.572-1.15 1.144-.57.859-.86 2.003-.28 2.576 1.14 1.144 2.28 2.575 3.43 3.72.57.858.57 1.717.28 2.861-.28.286-.57.572-1.14.859h-.57c-1.72-3.434-5.43-5.437-7.44-8.871-2.57-2.29-5.43-4.292-9.43-3.434-1.43.286-3.14.286-4.29 0-2.28-.572-4.28-.572-6.57-.572-2.86 0-5.433-.286-8.292-1.145-2.287-.858-4.859-1.144-7.432 0-2.001.859-3.431.287-4.86-.858a7.758 7.758 0 00-4.86-1.717c-5.431-.572-10.863-2.29-16.294-1.717-.858 0-1.429 0-2.287-.286-3.716-1.145-7.147 0-10.291 1.43-2.287.86-4.574 2.29-7.147 2.29-2.859 0-5.431 1.145-8.29.858-1.143 0-2.573.287-3.716.287-.572 0-.858.572-.858 1.144.286 2.29 2.573 4.006 2.287 6.582 0 .286.858 1.144 1.429 1.43 2.001.573 4.002 1.145 5.146 2.576 1.429 1.716 2.859 3.147 4.288 4.864.572.572.572 2.003-.286 2.575-.857.573-1.429 1.431-2.287 2.003-1.143.859-2.573.859-3.144-.286-1.43-2.861-4.002-4.006-7.433-4.292-.572 0-1.143 0-1.429-.286-.572-.286-1.43-.572-1.715-1.145-.572-.858-1.144-1.717-1.43-2.575-.286-.572-.286-.858.286-1.145 1.715-1.43 1.144-2.861.286-4.578-1.144-1.717-2.859-1.717-4.574-1.717-.857 0-2.573 1.43-2.573 2.29v5.722c0 1.145-1.143 2.29-2.287 2.576-2.572.286-5.145.572-7.432 1.144-1.715.573-3.431.859-5.146.286h-1.429l-8.576 4.293c-4.002 2.289-8.29 3.433-12.864 2.861-1.144 0-1.715-.572-2.287-1.717 0-.286-.286-.572-.286-.572-.857-4.578-3.716-7.726-7.718-10.015-.286-.286-.858-.573-1.144-.859-4.288-2.861-8.862-4.578-14.007-1.717-.858.573-2.001.573-2.859.859-4.002 1.43-7.718 3.147-11.149 5.723-1.715 1.144-3.716 2.289-5.717 3.434-1.429.858-3.144.286-3.716-1.145-.858-1.717-2.001-2.861-3.716-3.434-1.144-.572-2.287-.858-3.431-1.43-1.429-.573-2.287-.287-3.43.572-1.144.858-1.144.858-2.287 0-.858-.573-1.715-1.145-2.573-.859-.858.286-1.715.286-2.001-.286-1.144-1.144-2.573-1.43-4.002-1.717-.572 0-.572-.572-.286-1.144 1.143-2.003 1.143-3.148 0-4.293l-.572-.572c-2.858-1.717-5.717-2.861-9.148-2.003-1.429.286-2.858.572-4.288 1.145-.857.286-2.001.858-2.572 1.43-1.715 2.004-3.431 2.29-6.004 1.431-2.572-.572-5.431-.572-8.29-.572-3.144 0-6.575.286-9.719.858-3.145.287-6.575.859-9.719-.286-.572-.286-1.43.286-2.002.573-.285.286-.571.858-.571 1.144 0 .286.286.572.286.572 1.143.573 2.286.859 3.43 1.145.286.286.572.572.858 1.145.285.286-.286 1.43-1.144 1.716-.572.287-1.429.287-2.001.859-1.429.858-2.001 2.003-2.001 3.72 0 1.144 1.143 2.289 2.287 2.289h2.859v-.572.572c-.286 1.145-.286 2.29.571 3.148 1.144 1.717 2.287 3.147 4.002 4.292.572.572.572 1.144.286 2.003-.571.572-1.143 1.145-2.001.572-1.715-1.144-3.144-1.43-4.859-.286-1.144.572-2.287 1.145-3.145 2.003-1.144.858-2.573 1.43-4.288 1.145-1.144-.286-2.573-.286-3.716-.286-1.716.286-3.431.858-4.002 2.861-.572 2.003-1.716 2.575-3.717 2.861-3.716.287-6.86-.572-9.719-2.861-.286-.286-.286-.286-.572-.286h-.572c-.285 0-.285.286-.285.572 0 2.29.571 4.292 1.429 6.295 1.143 2.576 2.287 5.151 2.859 8.013 0 .858-.286 1.144-1.43 1.144-1.429-.286-2.858-.286-4.288-.858-4.574-1.431-7.432-4.865-11.149-7.154v-.572c-.571-2.003-.571-2.003-2.287-.859-1.429.859-2.286.859-3.43 0-.572-.572-.572-1.144-.857-1.717h-.286l-.286-.286c-.572 0-1.144 0-1.43-.572.286 0 .572-.286.572-.286l.858.858h.286c.857-.286 1.715-.858 2.287-1.144.285-.286.571-.859.571-1.145-.286-1.717-1.429-3.148-2.572-4.292-.858-.859-2.287-.859-3.431-1.145-1.143 0-1.429-.286-1.143-1.43.286-.859.571-1.717-.286-2.576-2.001-1.717-3.717-3.72-5.718-5.437-1.429-1.43-8.29-3.147-10.577-3.147-.571 0-1.143 0-1.429.286-1.143.572-2.001.858-3.43.572-3.145-.858-6.289-1.144-9.72-.286-.857.286-1.715.858-2.573 1.43-1.429 1.145-2.001 2.29-1.143 3.72.858 1.718 2.001 3.148 3.144 4.865.286.572 0 1.717-.571 2.003-2.859 1.145-6.003 2.576-8.862 3.434-2.001.572-4.002.286-5.717-1.145-1.144-.858-1.144-.858-2.573 0-3.431 2.29-6.575 1.431-7.147-2.289 0-.572 0-.858-.286-1.43-.286-1.145-1.715-2.004-2.858-1.717-4.003.858-7.719 1.43-11.721 2.289-1.429.286-2.859.572-4.288 1.144-1.429.859-2.859 1.717-4.574 2.576-1.429-.573-3.144-1.431-4.574-2.003h-.571c0 .286-.286.858-.286 1.144-.858 2.576-4.002 3.434-5.718 1.717-.571-.572-1.143-1.43-1.715-2.289-.286-.572-.857-1.145-1.715-.858-1.143.572-2.287.858-3.43.572-1.43-.286-2.287.572-2.859 2.003-.286.572-.286 1.43-.286 2.003 0 1.145.572 2.003 1.429 2.29.858.285 1.716.571 2.573.571h.286c0-.286 0-.572.286-.858l.858-.858c0 .286.285.286 0 .572 0 .286-.286.572-.286.572-.286.286-.572.286-.858.572v.287h-.286c-.286.572-.286 1.43-.572 1.716-1.429 1.145-2.286 2.576-3.144 4.007-1.715 2.861-4.288 4.006-7.433 4.006-1.143 0-1.715-.287-1.143-1.145.858-1.43.858-2.575 1.143-4.006 0-1.717 2.287-1.717 2.859-3.148.286-.572.858-1.43.572-2.003-.572-2.289 0-4.292 1.143-6.295.572-.858.858-1.717.572-2.861-.286-.859 0-1.717.286-2.862 1.143-2.29 2.287-4.292 2.859-6.581.571-2.29.857-4.579 1.715-6.868.857-2.003.571-4.292-.286-6.295-1.144-2.29-2.573-4.006-3.145-6.582 0-.286-.286-1.144-.857-1.144-2.573-1.145-4.002-3.434-6.003-5.437-.572-.572-1.43-.572-2.001 0-.572.572-.286 2.29-1.716.858-1.429-1.716-3.43-2.861-5.431-3.72-1.715-.858-3.716-1.43-5.432-2.575-1.715-1.144-3.144-1.43-4.859-.286-2.859 1.717-6.289 2.862-9.434 4.006-.572.286-1.143 1.145-.858 1.717.286.572.858 1.145 1.144 2.003.572 1.145 0 2.29-1.144 2.862-1.429.858-3.144.286-3.43-1.431-.286-1.145 0-2.29-.286-3.434 0-1.145-.286-2.29-.572-3.434-.285-1.144-1.715-2.003-2.858-1.717-.858.286-2.001.573-2.859.573-1.429.286-2.859 0-4.288-.573-1.143-.572-1.715-1.144-1.429-2.289.572-2.29-1.144-3.434-2.573-4.578-2.859.286-5.431-1.145-8.004-1.431-.572 0-1.43.572-2.001.858-.286.287-.858.573-.858 1.145-2.001 4.006-2.859 8.298-2.573 12.59.286 2.576 0 5.724 3.431 7.44 1.429.859 1.143 2.576 1.429 4.007.572 1.43.572 1.716-.858 2.002-1.715.287-3.43 0-5.145 1.145-.858.286-1.144.859-.858 1.717 0 .572.572 1.43.286 2.003-.572 1.43-1.715 2.862-2.573 4.292-.286.286-.857.573-1.143.859-1.715.572-3.145 1.144-4.86 1.717-.286 0-.572-.287-.572-.859l.858-2.575c.286-.859-.858-1.717-1.715-1.717-1.715 0-3.145.572-3.431 2.003-.285 1.145-.571 1.717-1.715 1.717-.857 0-2.001.286-2.859.286-1.715 0-2.572 1.145-3.716 2.29-1.429 1.43-1.429 2.002 0 3.72.572.571.572 1.43 0 1.716-2.001 1.145-3.716 2.29-5.717 3.148-1.715.858-3.716 1.43-4.86 3.147-1.143 1.431-2.858 2.576-3.716 4.292-.572 1.431-1.429 2.576-2.859 3.148-2.001.572-1.429 2.862-3.144 3.72-.858.572-1.144 1.43-1.715 2.29-.858 1.716-.286 3.147 0 4.864.285 1.144.857 1.43 1.715 2.003 1.715 1.43 3.43 2.575 5.717 3.434 2.287.858 4.574 1.716 6.289 3.72.286.286.572.858.286 1.43 0 .286-.286.859-.858 1.145-1.143.572-1.143-.286-1.429-.859-.286-.572-.572-1.144-1.715-1.144-.858 0-2.287 0-2.859.572-2.287 2.003-5.145 2.575-8.004 3.72s-5.431 2.003-8.576 2.861c-.858.287-2.001.573-2.859.859-2.572.858-3.43 3.148-2.001 5.723.572 1.144 1.144 2.003 2.001 2.861 1.144 1.431 2.001 2.576 2.287 4.293.286.858.572 1.716 1.144 2.575.571.858 1.429 1.43 2.287 1.717 1.715.858 4.002.572 6.003.572 1.715 1.43 3.144 2.862 4.86 4.292.285.287.857.287 1.429.573 1.143.572 2.287.858 3.43 1.43.858.287 1.715 1.145 2.001 2.003.572 3.148 1.43 6.01 3.431 8.585.571.572 0 1.43-.858 1.717-.857.572-1.715.858-2.573 1.43v.287c0 .286-.286.286-.286.572v.572c0-.286.286-.858.286-1.144-.286-.287-.286-.573-.571-1.145-2.001-2.575-2.573-5.15-1.144-8.012.286-.286.286-.858.286-1.43.286-1.432-1.429-2.862-2.859-2.862-1.143 0-2.572.286-3.716.572-2.287.572-4.288.286-6.289-1.43-1.143-.86-2.287-1.718-3.716-2.576-2.287-1.145-4.574-2.003-6.861-2.575-2.573-.573-4.86-1.431-7.147-2.003-.571-.287-1.429.286-2.001.572-1.143.858-1.715 2.289-2.001 3.72 0 .286.286.858.858 1.144.572.287 1.429.287 2.287.573l-.286-.287.286-.286v.573c.571.286.857.858 1.429 1.144.572.286 1.429.286 2.287.573.858.286 1.143 1.716.858 2.289-.286.858-1.144 1.144-2.001.858-.858-.286-1.716-.572-2.859-1.144-.572-.287-1.429-.859-2.001-.859-1.144 0-2.001.286-2.573 1.145-.286.572-.572 1.43-.572 2.003 1.43 2.575 3.145 4.864 6.289 5.723 1.716.572 3.431.858 5.146 1.144.857 0 1.429.286 2.001.573.286 0 .286.286.572.572.286.572-.286.858-.572.572-1.143-.572-2.287-.858-3.716-.858-2.287.286-4.574 0-6.861 0-1.429 0-2.287-.573-3.145-1.717-.285-.286-.285-.859-.571-1.145-1.716-2.289-3.145-4.864-3.145-7.726 0-2.289-1.429-4.578-2.859-6.581-.285-.572-1.143-.859-1.715-1.43h-.571c-.286 0-.572.285-.572.571.572 1.717 1.143 3.72 1.715 5.437.572 1.431.286 2.862-.572 4.006-.286.287-.571.859-.857 1.145-1.144 1.43-2.001 2.861-1.144 4.578.572 1.717-.572 3.434.572 4.865 1.143 1.43 2.573 2.289 3.716 3.434.858.858 1.715 1.716 2.859 2.289 1.429 1.144 2.287 2.575 2.287 4.292 0 2.003 0 3.72.286 5.723.571 3.72 2.858 6.581 4.288 9.729.286.858 1.429 1.145 2.572 1.145 2.002 0 4.003-.573 5.432-2.29 1.715-2.003 3.43-1.144 5.431-.286.286 0 .572.286.572.572 0 .287-.286.287-.572.573l-6.003 4.292c-1.715 1.43-2.001 4.292-.572 5.723l2.573 2.575c1.144 1.431 1.715 3.148.858 4.865-.858 2.29-1.429 4.578-1.144 6.867 0 1.145-.286 2.29-1.143 3.434-1.429 2.29-3.145 4.292-3.716 6.868 0 .286-.858.572-1.144.572-2.859-.286-6.003-.572-8.862-1.145-.571 0-1.143-.286-1.143-.572-.286-.572 0-1.43 0-2.003-.572 0-.572-.286-.286-.572l.286.286c.572.286 1.143.572 2.001.858 2.573.859 4.288.287 5.431-2.003 1.716-4.292 2.859-8.584 3.431-13.162 0-.573 0-1.431-.286-2.004-1.144-1.716-1.429-3.433-1.144-5.436.286-1.145-.571-2.29-1.429-3.148-1.143-.572-2.001-1.43-3.144-2.003-1.43-1.145-2.573-2.29-3.145-4.006-2.001-5.437-4.002-10.874-5.717-16.31-1.144-3.434-2.859-6.01-5.718-8.013-1.429-1.144-2.287-2.575-2.287-4.292 0-4.864-.857-9.443-2.001-14.021-.285-.858-.857-1.717-2.001-2.003-3.716-1.43-7.718-2.29-11.72-.859-.858.287-2.001-.286-2.859 0-.572 0-1.429.859-1.429 1.431-.286 1.145-.286 2.29-.286 3.434.286 3.72.286 7.726.572 11.446 0 2.003-.286 3.72-1.716 5.437-1.715 1.717-2.001 3.72-2.001 6.009 0 1.43.286 2.861 1.716 3.72 1.143.858 2.572 2.003 2.858 3.147.286 2.003 2.001 4.006.858 6.296-.286.286-.286 1.144 0 1.43 1.143 2.003 2.287 3.72 3.43 5.437 0 .286.858 0 1.144 0 1.143-.572 2.287-.858 3.43.286 2.001 2.29 4.002 4.293 7.147 5.151.286 0 .572.858.572 1.145v3.433c0 .859-1.144 1.145-1.716.859-1.429-.859-2.858-1.717-4.288-2.862-1.143-.572-2.001-1.43-3.144-2.003-1.715-.858-3.716-1.144-5.718-2.003-1.715-.572-3.144-1.43-4.859-2.003-2.287.573-3.431-1.717-5.146-2.575-3.43-1.43-7.147-2.29-10.863-1.717-.572 0-.857.286-1.429.286-4.288 0-8.576-.572-12.006-3.434-1.716-1.43-3.717-2.575-5.432-3.72-.572-.286-1.715 0-2.001.573 0 .286-.286.286-.286.572-.572 2.003 0 3.72 1.715 5.15 2.001 1.431 4.86 1.431 6.289 3.72.286.287.858.287 1.43.573 1.143.286 2.001.572 2.573 1.43l4.288 5.151c.571.859.571 2.003-.286 2.576-1.43 1.144-3.431 2.003-3.717 4.006l-.571.286c-.286-.286-.858-.572-1.144-.859-.286-.858-.286-1.716-.857-2.575-.572-1.144-2.001-1.717-3.145-1.43-1.715.858-3.43 2.002-5.431 1.716-.286 0-.572.286-.572.286-.858 1.717-2.287 2.29-4.288 2.29-1.715 0-3.716.572-4.86 1.716-1.429 1.717-3.43 2.004-4.86 2.862-.571.286-1.429 0-2.001.286v-1.43c.286-2.004-.286-3.72-1.715-4.865-1.715 0-2.859.286-3.43 2.003 0 .286-.572.858-.858.858-1.429 0-2.001 1.431-2.859 2.003-1.143.573-2.286.573-3.716.859-1.715.286-3.144 1.43-4.288 2.861-2.858 3.148-5.431 6.01-9.147 8.299-.858.572-1.43 1.43-1.43 2.289-.286 1.144-.286 2.289-.572 3.433 0 .287-.571.859-.857 1.145-2.001 2.003-6.003 2.003-7.433.572-.857-1.144-2.001-2.003-3.144-3.147a2.246 2.246 0 010-3.148 26.087 26.087 0 013.716-2.289c.858-.572.858-1.717.286-2.575-.858-1.145-2.001-2.003-2.859-3.148-1.715-2.29-4.002-3.148-6.575-2.575a21.1 21.1 0 01-6.003 0c-.286 0-.572.286-.572.286-.285.286-.285.858 0 1.144 3.717 2.576 4.574 6.01 4.003 10.016 0 .858-.286 2.003-.286 2.861 0 .858.286 2.003 1.429 2.29 2.001.858 2.287 2.288 2.573 4.005 0 .859 0 2.003-.286 2.862 0 .858-1.144 1.717-2.001 1.717l-4.288-.859c-2.001-.572-4.002-.286-5.146 1.431-.571.858-1.715 1.717-2.573 2.575-1.429.859-2.572 2.29-3.43 3.72-2.287 2.862-3.716 4.006.286 8.012.286.287.572.859.858 1.145.571.858 0 1.717-.572 2.575-.572.859-1.715 1.431-2.573.859-3.43-1.717-7.718-2.576-10.863-4.865-.572-.286-1.429-.572-2.001-.572-.572-.286-1.715.286-1.715.858-.286.859-.858 1.717-1.144 2.576-.286.858 0 2.003.572 2.575 1.429 1.717 3.145 3.148 5.717 3.148.572 0 .858.286 1.43.572.857.286.857 1.145.857 1.717 0 1.144-1.429 2.289-2.572 2.003-2.573-.286-4.86-.572-6.575-2.862-.858-1.144-2.573-1.43-4.003-1.716-1.143-.287-1.715-.859-2.001-2.003-.571-2.004-1.143-4.007-2.572-6.01-.858-1.144-.858-2.575-.572-4.006.572-3.433-.572-5.436-4.002-6.581-1.43-.572-2.573-1.145-3.716-2.289-4.86-5.437-9.148-6.296 2.858-2.003 5.432 2.003 10.863 3.433 16.58 4.292 4.288.572 8.576 0 12.579-1.431.571-.286 1.429-.572 2.001-1.144 2.287-2.576 4.288-5.151 4.573-8.871 0-.858 0-2.003-.571-2.862-1.43-2.002-2.573-4.578-5.432-5.722-1.143-.573-2.001-1.431-2.858-2.29-1.144-.858-2.287-1.43-3.717-1.716-2.287-.287-4.574-1.431-6.575-3.148-2.001-1.43-4.002-2.862-6.289-4.006-6.289-3.434-8.004-4.006-14.865-4.006-.857 0-2.001.286-2.858.286-1.144 0-2.573-.286-3.717-.286-1.143-.286-.571-.859-.285-1.717.285-.859 0-1.43-.572-2.003-.858-.573-1.715-.859-2.573-1.43-.858-.573-2.001-.287-2.859.285-1.143 1.145-2.287 1.717-4.002 1.145-1.429-.573-2.858-.286-4.288 0-.572 0-1.429-.286-2.001-.859-.286-.286-.572-.858-.572-1.144 0-.573.286-.859.858-.859 1.143 0 2.573-.286 3.43-1.144.858-.859 2.001-1.431 2.859-2.29.572-.286.286-1.43-.286-1.716-3.144-1.717-6.861-2.862-10.291-4.006-.572-.287-1.429.286-2.001.858-.286.286-.572.858-.858 1.145-.286.572-.571.572-1.143.286-.286-.286-.286-.286-.286-.573v-2.003c0-1.144-.858-2.289-2.001-2.575-1.144-.286-2.001 0-2.859.858-.857.573-1.429 1.431-1.429 2.29 0 .572-.286 1.43-.572 2.003-.286.286-.857.572-1.143.572 0 0-.572-.286-.572-.572-.286-1.145-.572-2.29-2.287-2.003-.858 0-.857-.859-1.143-1.431-.572-1.717-2.001-2.003-2.573-1.145-1.43 1.717-4.002 2.003-5.146 3.72-2.001.287-3.43 2.003-5.145 2.576h-.572v.286l-.286.286.286-.572v-1.145c-.286 0-.286 0-.572-.286-3.144 0-3.43.286-2.858 3.148 0 .286.285.858.285 1.144h.286l.286.286-.572-.286v-.286c-3.144-.286-5.431 1.43-8.29 2.575-.286 0-.286.859-.286 1.431 0 .572.572 1.43.286 2.003-.286.859-1.143.286-2.001.572-1.143.287-2.287.573-3.43 1.145h.286-.286c0-.572.286-1.43 0-2.003 0-.858-.858-1.145-1.715-1.145-.286 0-.858.573-.858.859.286.858.572 1.717 1.143 2.575h-.285.285c-2.286 0-3.716.859-4.573 2.576-.286-.287.571.858-.286.286v-.287h-2.287c-1.43 0-2.287.573-2.859 2.004-.572 1.43-.572 2.861.858 3.72.286.286.857.572 1.143.858.572.572.286 1.43-.286 1.717-.857.572-1.429 1.144-2.572.858-1.144-.572-2.287-.286-3.717 0-.857 0-1.429-.572-1.143-1.43.286-1.145.857-2.29 1.429-3.434 0 0-.286-.287-.286-.573h-.571l-5.146 5.151c-.572.572 0 1.43.286 2.003.857.859.572 1.717-.286 2.575-.286.287-.572.573-.572 1.145h2.573c1.715-.286 3.43-.858 5.146-1.145.857 0 2.001.287 2.858.287.286 0 .286.286.572.286l-.572.572c-.857.572-1.715.858-2.573 1.43-.571.287-.857.287-1.429.287-1.429.286-1.429 1.144-1.143 2.003-.858.572-1.716.858-2.001 1.717-.286.858 0 1.717 0 2.861-.286 2.576-6.004 8.012-6.289 8.871-.286 1.431-1.43 2.575-1.716 4.006 0 1.145-.286 2.289-1.715 2.861-.857.287-1.143.859-.857 1.717.285 1.431.571 2.862 0 4.293-.572 1.43-.572 2.861-.858 4.006 0 .572-10.577 10.587-11.721 13.449-.285.572-.571 1.43-.857 2.003-.572.858-1.43 1.43-2.573 1.43-.858 0-2.001-.286-2.859-.286-.286 0-.571.286-.571.286-.286.287-.286.859 0 1.431l.571.572c.286.573.286 1.717-.285 1.717-2.287.286-3.717 2.576-6.004 2.289-1.429 1.145-3.144 2.29-4.574 3.434-.285 0-.285.573 0 .573.286 1.716-.571 2.003-2.001 2.289-.857.286-2.001.286-2.858.858a3.449 3.449 0 00-1.43 1.431c-.285.858 0 2.003-.285 2.861-.572 2.576.571 5.151-.572 7.726 0 .287 0 .573.286.573.571 1.717 2.001 3.147 2.858 4.864.572 1.145 1.144 2.003 1.43 3.148.286.572 0 1.431-.572 2.003-.572.858-1.429 1.431-2.001 2.289-.286.572 0 1.717.572 2.003.571.286 1.429.572 2.001.859.857.286 1.143 1.144.571 1.716-.571.859-1.429 1.431-2.001 2.29-.571.572-.286 2.289.286 2.575 2.573 2.289 5.432 4.006 8.862 5.151.572.286 1.143.286 1.429.286 3.145-.859 6.289-1.431 8.29-4.292.858-1.145 1.716-2.29 2.859-3.148 2.001-1.431 4.574-1.717 5.717-4.292h.572c.858.572 1.715 1.144 2.001 2.003.572 1.43.286 2.861.858 4.006.572 1.717 1.429 3.147 1.715 4.578.286 2.862 1.715 4.865 2.859 7.154 1.143 2.003 2.287 4.292 4.002 6.009.572.572.286 1.431 0 2.003-.286.572-.286 1.145-.572 2.003h.286v.572c.286.573.858.859 1.143 1.431 1.716 4.865 2.573 3.434 6.861 2.862 1.144 0 1.715-.859 2.001-2.003.286-1.717 1.43-2.29 3.145-2.576.857 0 1.429-.286 2.287-.286 2.001 0 4.002-.286 4.86-2.289 3.43.572 3.144-2.003 3.716-4.006v-1.431c0-.858-.572-1.145-1.43-.858h-.857c-.286 0-.286-.286-.286-.573 0-2.289-.286-4.864.572-7.153.286-1.145.571-2.29.571-3.434 0-2.289 1.144-3.434 2.859-4.579 1.144-.858 2.573-1.43 3.716-2.289 1.43-1.144 2.287-2.575 2.001-4.292 0-.858.286-1.717.286-2.861 0-.573-.286-1.431-.571-2.003-1.716-2.29-3.431-4.579-6.289-5.723-1.43-.573-2.287-2.003-2.287-3.434 0-3.72 0-7.726.285-11.446 0-.572.286-1.431.858-2.003 2.001-3.148 4.288-6.295 7.718-8.298 1.716-1.145 3.145-2.29 4.574-3.72 2.859-2.576 2.859-2.576 4.574-6.296.572-1.144.572-2.289.286-3.433-.572-2.862 0-6.01 1.144-8.299 1.143-2.289 2.858-4.006 6.003-3.433 3.716-.573 6.861 0 10.291 1.716.857.573 1.429 2.576.572 3.148-1.144.572-2.001 1.145-2.001 2.575 0 .859-.572 1.717-1.144 2.576-2.287 3.433-4.574 6.867-7.432 10.015-.858.858-1.716 1.717-2.001 2.861-.572 1.717-1.716 2.003-3.431 2.003-.858 0-1.429.573-1.429 1.145.286 1.145 0 2.289-.286 3.434-.286.858-.286 2.003 0 2.861l.858 2.576c.857 3.72 2.001 7.439 1.429 11.159 0 .573 0 1.431.286 2.003.286 1.145.857 2.29 2.001 2.576.857.286 1.715.858 2.573 1.431h-.286l.571-.287.858 1.717c.572.286 1.143.859 1.715.859 1.715-.286 2.859.572 3.717 1.717.857 1.43 2.286 1.716 4.002 1.144 1.429-.286 2.858-1.144 4.002-1.717 4.574-2.003 9.147-3.433 14.293-3.433 1.715 0 3.43-.287 5.146-.573.571 0 1.143 0 1.429.286.858 2.29 3.43 1.717 4.86 2.576.286 0 .571.286.571.286l.286.572c-.857.572-1.715 1.145-2.572 1.431-1.43.572-2.859 1.144-3.717 2.289-1.715 2.575-3.716 2.575-6.289 1.717-1.715-.572-3.43-.858-5.145-1.145-.858 0-1.43-.286-2.287 0-2.287.573-4.86 1.431-7.147 2.29-2.573.858-4.288 2.575-4.288 5.15 0 1.431-1.143 2.003-2.287 2.576-.858.286-2.001.286-2.859.572-2.001.572-2.287 2.003-.857 4.006l.286.286c2.287 0 3.43-1.431 5.145-2.575 1.144-.859 1.43-.859 2.573 0 .858.572 1.429 1.144 2.287 1.717.858.286 1.143.858 1.429 1.717v5.722c0 1.145-.857 1.717-1.715 2.003-.572.287-1.429 0-2.001-.572-1.143-.858-2.001-2.003-2.859-3.147-1.143-1.145-1.715-1.431-3.144-.859-2.001.572-3.716 1.717-4.288 3.72-.572 1.431-1.144 2.575-1.715 4.006-.572 1.717-.858 3.72-.572 5.723.572 2.289.858 4.578 1.143 7.154 0 .286-.285.858-.571 1.144-1.144.573-2.287.859-3.431 1.431-1.143.572-2.001 1.145-2.001 2.575-.286 2.29-4.859 2.576-6.289.859-.286-.286-.572-.859-.857-1.145-.572-1.144-1.716-1.717-3.145-1.43-2.573.286-4.86.858-7.147 2.003-2.858 1.717-6.003 3.433-9.147 4.864-1.144.572-1.716 1.717-2.859 2.289-.572.286-1.715.573-2.001.286-1.429-1.144-2.573-2.289-3.43-3.433-.286-.573 0-1.431 0-2.003 0-.573-1.144-1.145-1.716-.573-1.143.859-2.287 1.717-4.002 1.717-2.287.286-4.002 1.717-6.003 2.576-.286.286-1.143 0-1.429-.287-.858-.858-1.43-1.716-2.859-2.003-1.143-.286-2.573-.286-3.43-1.144-.858-.859-1.144-2.003-1.716-3.148 0-.286 0-.858.286-1.144 0 0 .572-.287.572 0 2.001.858 4.288 1.144 6.003 2.575 2.001 1.717 4.288.858 5.432-1.431 1.715-2.861 2.572-6.009 2.001-9.157l-.286-.286v-.286c-2.573-.286-4.574 1.145-6.575 2.862-.572.572-.858 1.716-.286 2.575.572.858 1.144 1.431 1.715 2.289.286.286 0 1.145-.286 1.145-.285.286-.857 0-1.429 0-.286 0-.572-.286-.572-.286-1.715-1.431-2.287-3.72-4.574-4.579-.285 0-.285-.858 0-1.144.286-1.717 1.144-3.148 2.859-3.72.572-.286.572-.859 0-1.145l-.572-.572c-2.572-1.145-2.858-3.148-2.001-5.437.572-1.145.858-2.289.572-3.434 0-.572-.858-1.431-1.429-1.144-.572 0-1.144 0-1.43.286-2.858 1.431-4.859 4.006-8.004 5.15-.286 0-.572.859-.572 1.145 0 2.862-2.001 5.437-.857 8.298.286.286-.286.859-.286 1.431-.286.859 0 1.717.572 2.575.571.573 1.143 1.145 1.143 1.717.572 2.862 1.715 6.009 2.001 8.871 0 1.717-2.287 4.006-3.716 3.72-2.001-.573-4.002-.286-5.717.572-1.43.859-3.145 1.431-4.86 1.717-2.287.286-4.288 1.717-6.289 2.575-2.001.859-3.145 2.289-3.716 4.293-2.001 6.295-2.001 6.295-7.433 10.301-1.143.858-2.573 1.431-3.716 2.289-.572.286-1.144.858-1.43 1.717-.285.858-.571 1.717-.857 2.861-.572 1.431-1.429 2.29-3.145 2.862-.857.286-1.429.286-2.287.572-1.143.286-2.287 1.145-2.858 2.289-.858 1.431-2.287 1.717-4.002 1.431-1.43 0-2.287-.858-3.431-1.431-.572-.286-1.43-.286-2-.572-.573 0-1.716.859-1.43 1.431.286 1.431.857 2.861 1.143 4.006.286.858-.571 1.717-1.715 1.717-1.715 0-3.43 0-5.145-.572-.858-.287-2.002-.573-2.86-.287-2 .287-3.715 1.145-5.716 1.717-.572.286-1.144 1.145-1.144 1.717.286 2.289.572 4.865 4.288 4.865 1.43 0 2.859 1.144 4.288 1.43 2.573.573 4.002 2.003 4.86 4.006.857 2.29 2 3.72 4.002 4.865 1.429.858 2.001 2.003 2.001 3.72-.286 3.72-.286 7.44-.858 11.446 0 1.431-.571 2.861-1.143 4.006-.286 1.144-2.287 2.575-3.716 2.003-2.573-1.145-5.432.286-8.005-.859-.571-.286-1.429-.286-2.287 0-2.572.859-4.86.573-7.432-.286-2.573-.858-5.431-1.144-8.004-.572-.572.286-1.43.286-2.287 0-3.145-1.145-5.718-1.145-8.005 1.717-.285.572-1.429.572-2 .572-.572.286-.858.286-1.43.573-.858.286-1.43 1.716-1.143 2.289 1.429 2.289 2.286 4.864 1.429 7.44 0 .286 0 .572.286.572 1.143 5.437 0 10.301-2.287 15.166-.572 1.144-1.144 2.575-1.715 4.006-.286.858-.286 2.003.285 2.861 2.288 2.576 3.145 5.151 2.86 8.585 0 .572 0 .858.285 1.43.286.287.572 1.145.858 1.145 2 .572 3.716 1.431 5.717.859.858-.287 2.001-.287 2.859-.287 1.429 0 2.573.573 3.144 1.431 1.144 1.431 1.715 2.862 2.859 4.292 1.143 1.431 3.144 2.003 4.574 1.145 1.143-.572 2.287-1.145 3.144-2.003 2.573-1.717 5.432-2.289 8.576-2.289 2.287.286 4.574-.286 6.861-.286 1.43 0 2.287-.573 3.145-1.717.857-1.145 2.001-2.003 3.43-2.576 1.429-.572 2.573-1.43 3.144-2.861.572-2.003 1.716-4.006 3.431-5.437.857-.858 1.143-1.717.572-2.575-2.859-3.434-1.43-6.009 1.143-8.871.572-.572 1.429-1.431 2.001-2.289 2.001-2.003 3.716-4.578 7.147-4.865 3.43-1.43 6.003-3.433 6.003-7.439 0-1.431.286-2.862.572-4.293 0-.572.286-1.43.571-2.003.572-1.717 2.859-3.147 4.574-2.861 3.431.572 6.861.572 10.006 2.575 1.429.859 3.144.572 4.002-.572 2.001-2.289 4.288-4.006 7.146-4.865.858-.286 1.716-1.144 2.287-1.717 1.716-2.003 3.717-2.003 6.004-1.144 2.286.858 4.002 2.003 4.859 4.006l2.573 5.151c3.145 2.575 6.289 5.15 8.862 8.298 2.001 2.289 4.574 4.006 7.432 4.578 3.717.859 6.004 3.434 8.862 5.151.858 1.717 2.573 2.861 4.288 3.72a3.443 3.443 0 011.43 1.431c.857 1.716 1.429 3.433 2.001 5.436v1.431c-.858 2.003-1.43 3.72-4.288 4.292-4.574.859-8.862 1.717-13.436 1.145-.572 0-1.429.286-2.001.572-.286.286-.572.573-.858 1.145 0 .286 0 1.144.286 1.431 1.43.858 2.859 1.716 4.574 2.575 3.145 1.431 6.289 2.861 9.434 4.578.571.286 1.715-.286 2.001-.858.286-.572.571-1.431.571-2.003 0-.859-.285-2.003-.285-2.862 0-1.43 1.143-2.575 2.858-2.575s2.859-.286 3.717-1.717c1.143-2.003 2.286-4.006 3.716-6.295.857-1.431.572-2.862-.286-4.006-.286-.573-1.144-1.145-1.144-1.717-.285-.859 0-2.003.286-2.862.286-1.43 2.287-2.003 3.717-1.43l3.43 2.575c.286.286 1.143 0 1.143-.286 1.144-1.145.858-3.148-.285-3.72-4.003-2.003-7.147-5.437-11.721-6.581-1.429-.287-1.715-1.431-2.001-2.576 0-.286-.572-.858-.858-1.144-.857-.287-2.001-.573-2.858-.573-2.573 0-4.288-1.144-5.718-2.861-1.143-1.145-2.287-2.576-3.144-4.006-1.144-2.862-3.431-4.579-5.717-6.582-.858-.858-2.002-1.43-3.145-2.003-1.143-.858-1.715-2.289-1.715-3.72 0-1.144.286-2.289.286-3.433 0-.859.571-1.431 1.143-1.717 1.144-.573 2.287-.859 3.431-1.431.285 0 1.143.286 1.143.572l.858 3.434c.285.858 1.143 2.003 2.287 1.717 1.715-.572 2.572 1.145 4.288.858 1.143-.286 2.001.573 2.286 1.431.858 3.148 3.431 5.151 6.29 6.868 2.286 1.43 4.288 3.147 7.146 3.433 1.144.859 2.287 2.003 3.716 2.29 2.002.286 3.145 1.43 4.288 2.575 1.43 1.431 2.573 2.861 4.003 4.292.857.859 1.143 1.431.857 2.576v4.292c-.286 2.575.286 4.864 2.573 6.295.286 0 .286.572.286.572-.572 2.003.857 2.862 2.287 4.006 1.143.859 2.287 2.003 3.144 2.862.286 2.003 2.859 3.147 2.859 5.437.572.572.572.858 0 1.43v1.431c2.001 1.431 3.716 2.862 4.288 5.437 0 .572.858 1.145 1.429 1.431 1.715.858 3.717 1.144 5.718 1.144.857 0 1.715-.572 1.143-1.43-1.143-2.29 1.429-3.72 1.429-6.01l.572-.286c2.001.573 3.145-.858 4.86-1.43.572 0 .572-.573.572-1.145-.572-1.717-1.144-3.72-3.145-4.578-.858-.573-2.001-.859-2.573-1.717-2.001-2.576-3.716-5.151-5.431-7.726-.286-.286-.286-.859-.286-1.431 0-.286 0-.572.286-.572.286-.573.857-.573 1.143-.286.286.286.572.572 1.144.858 2.287 1.717 4.288 1.145 5.145-1.145.286-.858.572-1.717 1.144-2.575.286-.286.857-.572 1.143-.572.858.286 2.001.572 2.859 0 1.143-1.145 2.859-.859 4.288-.859 2.001.286 3.716 2.003 3.716 3.72 0 2.862 0 5.723-.857 8.585-.286.572.571 1.43 1.429 1.43h3.144c.286 0 .572.287.572.573v1.43c-.857 1.431-2.573 1.145-4.002 2.003-.286 0-.572.287-.572.573-.286.572 0 .858.572 1.144.858.573 1.715.859 2.573 1.431.572.286 1.429.572 2.001 1.145.858.858-1.144 1.717-.286 2.289 1.144.858 2.573 1.717 3.145 2.861.571 1.431 2.001 2.003 3.144 3.148.858.572 1.715.858 2.859.572 2.287-.572 4.002 0 5.145 1.717.572.572 1.144.859 1.716 1.145.285.286.857.572 1.429.286 2.573-.286 5.145-.286 6.861-2.575 1.143-1.717 2.858-1.717 4.574-1.145 1.715.286 3.43 1.145 4.573 2.289 2.001 2.003 4.288 2.003 6.861 1.431 2.859-.572 5.146-1.717 6.861-3.72.572-.572 1.715-1.145 2.859-.572 2.001.572 3.716.572 5.717.572v-.286l.286-.286v.286h-.286c-.858 2.575-.572 5.151-.286 7.44.572 2.289.286 4.864-.286 7.153-.571 1.717-1.143 3.72-1.715 5.437-.858 2.576-2.287 4.865-2.573 7.44-.286 2.289-1.715 4.292-3.43 6.295-.572.859-1.429 1.431-2.573 1.431-3.716 0-7.432.572-11.149-.858-1.429-.573-2.858-.573-4.288-.573-3.43-.286-6.575.573-9.433 2.29-1.43.858-2.859.858-4.288.572-5.432-1.145-10.577-2.576-16.295-3.148-2.001-.286-4.288-.572-5.717-1.431-2.573-1.43-5.146-1.716-7.718-2.289-2.287-.286-4.288-1.144-6.004-2.861-.571-.573-1.715-1.145-2.572-1.431-4.288-.858-8.576-.858-12.578 1.145-2.573 1.144-4.86 4.864-4.003 7.726l.858 2.575c.286.858 0 2.003-.858 2.575-.571.573-.857 1.145-1.429 1.717-1.429 1.145-3.43 1.431-4.86.572l-2.572-1.716a26.12 26.12 0 00-3.717-2.29c-3.144-1.716-6.289-2.861-10.005-2.861-1.715 0-2.859-.859-3.43-2.289-.286-.859-.858-1.717-1.144-2.576-.572-1.43-1.715-2.289-3.144-2.861-4.288-1.431-8.576-2.862-13.15-2.289-2.573.286-4.86-.859-7.147-1.717-.286 0-.572-.286-.572-.286-1.715-2.003-4.002-2.862-6.289-3.434-1.143-.286-1.429-2.289-.857-3.148 1.143-1.144 2.287-2.003 3.144-3.147 1.429-1.717 1.429-3.434.858-5.437-.572-1.145-1.43-2.003-2.001-2.862-.286-.286-.286-.858-.286-1.43.572-1.431 1.143-2.576 1.715-4.006.286-.573-.286-1.431-1.143-1.145-1.144.286-2.573.286-3.431-.572-1.429-1.717-3.43-1.717-5.431-1.145-2.001.572-3.717 1.145-5.718 1.717-1.143.286-2.572.286-3.716.286-2.001-1.431-4.002.572-5.717-.286-2.287-1.145-3.716.572-5.718.858-1.429.287-2.858.287-4.573 0-3.717-.572-7.433-.286-11.149.859-2.001.572-4.002.572-6.003.572-1.716 0-3.431.572-5.146 1.145-2.573 1.431-5.431 2.575-8.004 3.72-2.001.858-4.002 1.717-5.718 3.147-2 1.717-4.573 2.003-7.146 1.145-2.001-.859-3.717-1.145-5.718-.859a21.036 21.036 0 01-6.003 0c-.857 0-1.715-.572-2.573-1.144l-1.143-1.145c-2.001-2.003-4.002-1.431-4.86 1.145-.572 1.431-1.143 2.575-1.43 4.006-.57 3.434-2.858 5.437-6.002 6.867-2.573 1.431-5.146 2.862-7.719 4.579-2.287 1.431-4.573 2.861-4.573 6.009 0 1.145-.858 2.289-1.716 3.148-1.143 1.716-1.715 3.433-1.715 5.436.286 1.431.286 2.862.286 4.293 0 1.144-.286 2.289-1.144 3.433-1.143 1.431-2 2.862-3.144 4.006-.572.859-1.43 1.431-2.287 2.004-1.143.858-2.573 1.43-3.716 2.289-1.715 1.144-3.43 2.003-5.432 2.289-2 .286-3.144 1.431-4.288 2.861-.571.859-1.143 1.431-1.715 2.29a9.043 9.043 0 01-4.002 4.006c-2.001 1.144-3.145 2.861-4.288 4.864-2.001 3.434-3.43 6.868-6.575 9.443-.572.572-1.143 1.431-1.715 2.289-1.715 3.72-3.716 7.44-6.003 10.588-1.144 1.43-1.43 3.147-1.43 4.578-.286 2.003.286 3.72 2.287 4.865 1.715.858 2.287 2.575 1.715 4.292-.571 1.717-.571 3.147 0 4.864 1.43 4.293 1.716 8.299-.571 12.591-.286.286-.286.858-.286 1.431-.858 4.292-2.001 8.298-5.432 11.446-.285.286-.285.858 0 1.43l2.573 3.434c.858 1.145 1.43 2.575.572 4.006-1.144 2.289-.286 4.292.572 6.295.857 1.717 2.287 2.576 3.716 3.434 1.43.572 2.859.859 4.288 1.431v-.286l.286-.286-.286.572c0 1.431.572 2.575 2.001 3.434 1.43.858 2.287 1.717 2.573 3.147.286.859 1.143 1.717 2 2.003 2.002.859 3.717 2.29 5.146 4.006.572.573 1.43 1.717 1.43 2.576 0 3.147 1.715 5.437 3.144 8.012 1.43 2.575 3.717 4.578 6.575 5.723 2.001.858 4.002 2.003 5.718 3.434 4.002 3.147 8.004 6.295 12.578 8.87 2.287 1.145 4.573 2.003 6.86 2.862.572.286 1.43 0 2.287 0 1.716-.573 3.145-1.431 4.86-2.003 2.859-1.145 5.717-2.003 8.576-2.003 2.001 0 4.002-.287 6.003-.573 3.145-.572 6.003-.286 8.576 1.145.572.286 1.43.572 2.287.572 1.43.286 2.859.286 4.288 0 1.715-.572 3.431-.858 4.86-1.717 1.429-.572 2.859-.858 4.002-1.717 2.001-1.144 4.002-2.003 6.003-2.575 2.287-.572 4.288-1.717 6.289-2.003 3.145-.286 6.289-1.717 9.72-1.145.857 0 1.429.001 2.287.287 2.858 1.144 5.145 2.861 6.575 5.723.571 1.43 1.143 2.575 1.715 4.006 1.143 2.289 3.43 3.433 6.003 3.433h2.287c3.145-.572 6.575-.858 9.719-1.716 2.001-.287 3.431-.573 4.574 1.43.572.859 1.43 1.431 2.001 2.003 2.573 1.717 2.859 4.293 3.145 6.868 0 1.717-.572 3.434-1.144 4.864-.571 1.431-1.715 2.576-2.001 4.007-.286 1.43.286 3.433-.286 4.864-.571 2.575-.857 5.151-3.144 7.154-.286.286-.286.858-.286 1.43 0 .287 0 .573.286.573 3.144 7.726 4.574 9.443 10.863 15.166 1.143.858 2.287 2.003 3.43 2.861 2.001 1.431 3.431 3.434 4.288 5.723.572 1.145.858 2.289 1.144 3.434.857 2.861 2.001 5.151 3.716 7.726 2.001 2.861 2.001 6.295 2.859 9.443.286.572-.572 1.43-.572 2.003 0 .858-.286 2.003 0 2.861.572 2.003.858 4.292 2.001 6.009.572.859 1.143 1.717 1.143 2.576.858 4.006.858 7.726-2.572 10.587-1.716 1.145-2.573 2.862-4.002 4.292-1.43 1.431-2.287 3.148-2.573 5.151-.286 3.148-1.43 6.009-2.859 8.871-.858 1.43-1.143 3.147-1.143 4.864v8.585c0 1.43.285 2.861 1.429 4.006 2.859 2.861 4.86 6.009 6.003 9.729 1.429 3.72 3.431 7.44 5.146 11.159 1.429 2.576 2.573 5.151 2.287 8.013 0 3.147.571 6.009 1.715 9.156.286 1.145.857 2.29.857 3.434 0 3.434 1.144 6.582 1.716 9.729.857 3.72 2.572 6.582 4.859 9.443 1.144 1.431 2.287 3.148 3.717 4.578 1.429 1.431 2.001 3.148 2.572 5.151.858 3.72 2.002 7.44 4.003 10.874.571.858.857 1.717 1.143 2.575.858 2.003 1.144 4.292-.858 6.009-.571.859-.857 1.717-.285 2.575 1.429 1.717 1.429 4.007 1.715 6.01 0 .572.286 1.144.572 1.144 2.572 1.431 5.145 2.862 8.004 4.006.571.286 1.715.286 2.287 0 2.573-1.144 4.859-2.289 8.004-2.003 1.143 0 2.573-.286 3.716-.858 2.001-.859 4.288-1.145 6.575-1.145 2.573 0 4.86-.858 7.433.286.571.287 1.715.573 2.287.287 2.287-1.145 5.145.286 6.86-2.004.286-.572 1.43-.572 2.001-.572 3.717 0 6.575-1.717 9.72-3.434 4.288-2.575 7.718-6.009 11.435-9.442 2.572-2.004 4.573-4.293 6.289-6.868 1.715-2.575 4.002-4.865 5.717-7.44.858-1.431 2.001-2.861 3.43-3.72 3.145-1.717 4.86-4.864 6.004-8.012.857-2.289 1.429-4.578 2.001-6.868.285-1.144.286-2.289-.286-3.433-.858-1.431 0-2.862 1.143-3.72 1.715-1.431 3.431-2.576 5.718-3.148 2.572-.572 4.859-1.144 6.86-2.575 1.716-1.145 3.145-2.575 3.145-4.579 0-2.289.572-4.578 1.143-7.153.286-1.145.286-2.289-.286-3.434-1.143-3.72-2.001-7.44-3.144-10.874-.286-1.144-.286-2.575.858-3.433 5.431-4.007 10.862-8.585 16.008-12.877 1.429-1.145 3.43-2.003 5.146-2.575 2.001-.859 4.002-2.003 6.003-2.862 4.288-2.289 7.146-5.723 9.148-10.015.857-2.003 1.429-4.006.857-6.295-.286-2.003 0-4.293 0-6.296 0-1.717.286-3.433 0-4.864-.572-2.862-.286-5.723.286-8.585.286-1.43-.286-2.861-1.715-3.719-2.573-1.431-3.431-3.72-4.288-6.296-1.144-3.147-.572-6.581-1.144-9.729 0-.572.286-1.431.572-2.003.858-1.431.858-2.861-.572-4.006-2.572-2.003-3.144-4.006-1.715-6.867 1.144-2.29 1.715-4.293 3.716-6.296 2.287-2.003 2.573-5.15 4.288-7.44.858-1.144 1.43-2.289 2.859-3.147 2.573-1.145 4.574-3.148 6.003-5.151 4.288-5.723 9.434-10.301 14.865-15.166 3.145-2.861 6.004-5.723 10.006-7.153.571-.287.857-.573 1.143-.859 9.434-7.154 16.866-15.452 21.726-26.039 1.715-4.006 3.43-8.012 6.289-11.16 2.001-2.289 2.859-4.865 3.716-7.726 1.144-3.72.858-7.44 1.144-11.16 0-.858-2.001-2.003-2.859-1.717-.286 0-.572 0-.572.286-2.858 2.29-6.289 2.862-9.719 3.434-4.86.859-10.005.859-14.579 2.862-.572.286-1.43.286-2.287.286-2.859-.286-5.432.572-8.004 2.003-.572.286-1.43.572-2.002.858-1.143.286-2.001 0-2.858-.286-.572-.286-1.144-.858-1.715-1.431-1.716-1.717-3.431-3.433-5.432-5.15-.572-.573-.572-1.145 0-1.717 1.429-2.576 1.429-3.434-.572-4.865-1.429-1.144-2.572-2.289-3.716-3.434-2.287-2.861-5.145-5.15-7.718-7.726-1.43-1.43-3.431-2.575-5.718-3.433-3.716-1.717-6.575-4.006-7.718-8.299-.572-2.003-1.143-4.006-2.001-6.009-.572-2.003-2.001-3.72-4.002-5.15-1.715-1.145-3.145-2.29-4.86-3.434-1.143-.859-2.001-2.289-2.001-3.72-.286-4.006-1.429-8.012-2.287-12.018-.857-3.72-3.144-6.296-6.575-8.299-.572-.286-1.429-.572-2.001-.858-.572-.572-.857-1.145-1.143-1.717-.286-.572-.572-1.431-.286-2.003.286-2.575-.572-4.578-2.287-6.581-.858-.859-1.144-2.003-2.001-3.148-2.859-4.292-6.003-8.584-7.433-14.021-.286-.859-.857-1.717-1.429-2.576-.286-.858 0-1.43 1.143-1.43.858 0 2.001.286 2.859-.573.858-.572 1.429-1.43 2.573-1.43 1.429 0 2.287.858 3.144 1.717.572.858 1.144 1.43 1.716 2.289 2.858 3.433 4.859 7.153 7.432 10.587 1.715 2.003 2.859 4.006 3.145 6.295.286 1.431 1.429 2.576 2.858 3.148 3.145.859 5.146 2.861 6.289 5.723.286.858.858 1.717 1.43 2.575.857 1.431 1.429 3.148 1.143 4.865v2.289c.286 3.72 2.287 6.868 5.432 8.871 1.143.858 2.572 1.43 3.716 2.289 2.001 1.431 3.716 3.148 4.288 5.723.858 2.861 2.573 5.15 4.574 7.154 1.715 1.716 3.43 3.433 4.859 5.436 1.716 2.29 2.859 5.151 2.287 8.012-.285.859-.285 2.003 0 2.862 1.716 3.148 2.001 6.868 3.431 10.301.572 1.431 1.143 2.576 1.715 4.006.572 1.145 1.715 1.717 3.145 1.717 1.143 0 2.572-.286 3.716-.286 1.715 0 3.43-.572 4.574-2.003 1.429-2.003 3.716-2.289 6.003-2.003 2.859.286 5.431-.286 8.004-1.717 1.429-1.144 3.145-1.431 4.86-1.717 1.429-.286 2.858-.858 4.002-2.003 1.143-1.431 2.859-2.003 4.574-2.575 2.573-.859 5.431-1.431 8.004-2.289l6.003-2.576c.858-.286 1.716-1.144 2.001-2.003.572-2.289 2.287-3.72 4.574-4.292 3.145-.858 6.289-1.717 9.434-2.289 2.287-.286 3.716-1.145 4.288-3.434.286-1.144 1.143-2.289 2.573-2.289 2.858-.286 4.573-1.717 5.431-4.292.286-1.145 1.715-1.717 2.859-2.289.857-.287 2.001-.287 2.858-.859.572-.286 1.144-1.144 1.144-1.717.286-1.43 0-2.861 0-4.292 0-1.145.572-2.289 1.715-2.862 3.716-2.289 6.003-5.722 8.004-9.156 1.43-2.289.858-3.434-1.143-5.723-1.429-1.431-2.573-2.862-3.716-4.292-.858-1.431-2.001-2.004-3.717-2.29-2.001-.286-4.002-.286-6.003-.858-1.143-.286-2.287-.858-3.144-1.717-1.716-1.717-3.145-3.72-3.431-6.295-.286-2.003-.572-4.292-.857-6.295 0-.287-.286-.573-.286-.573-.572 0-1.144 0-1.43.286-2.858 2.862-6.003 5.723-8.29 9.157-1.715 2.575-4.288 4.006-7.432 3.72-2.573-.286-4.86 0-7.433.859-.857.286-2.001-.287-2.573-.859-.857-.858-1.715-1.717-1.715-3.148-.286-2.289-.286-4.864-.572-7.153 0-.573-.285-.859-.571-1.145-.286-.286-.858-.858-1.144-.858-.286 0-1.143.286-1.143.572-.572.858-.858 1.717-1.429 2.575-.572 1.145-1.43 1.145-2.287 0-.858-1.144-1.716-2.289-2.001-3.72-.286-2.575-1.716-4.578-3.431-6.295-1.143-1.144-2.573-2.289-3.716-3.434-.572-.572-1.43-.858-1.715-1.43-1.43-2.576-2.859-4.865-4.288-7.44-.286-.573-.286-1.431-.286-2.003 0-.859.286-2.003.572-2.862 0-.286.571-.858 1.143-.858 1.429-.286 2.859-.573 4.288-.286 1.429 0 3.144 0 4.288.858.858.572 1.429 1.717 2.287 2.862 2.001 2.861 3.716 5.723 5.431 8.584.858 1.431 2.001 2.003 3.431 2.575.857.287 1.429.287 2.287.573 1.715.286 3.144.858 4.574 2.575.857.858 2.001 1.431 2.858 2.003 2.859 1.717 6.003 2.289 9.148 2.861 1.429.287 2.573.287 3.716-.572 1.715-.858 3.431-1.717 5.432-2.575 2.287-.859 4.002 0 5.145 1.717.858 1.43 1.43 3.147 2.001 4.578.572 1.431 2.001 2.003 3.431 2.289 7.146.573 13.721 2.003 20.868 3.148 2.573.286 4.86.572 7.432.286 4.288-.572 8.291-1.717 12.579-.858.857.286 2.001-.287 2.858-.573 2.859-.858 6.003-.858 8.862-.572 1.144 0 2.001.572 2.287 1.431.572.858 1.143 1.717 2.001 2.003 1.144.572 2.001 1.431 2.287 2.861.572 2.29 2.001 3.72 4.574 4.006 1.715.286 3.144 1.431 4.288 2.862 2.001 2.575 4.574 3.434 7.718 3.72h2.001-.286c-1.143 1.717-2.572 2.575-4.859 1.717-.286 0-1.144.286-1.144.572-.286.286-.286 1.145 0 1.145 2.287 2.289 4.288 4.578 6.575 6.581 4.288 3.72 6.289 3.72 11.149.858 2.001-1.144 3.145-2.575 3.43-4.864v-.286l.286.286v.286c.286 0 .572.286.572.286 1.144 3.148 2.573 6.295 2.287 9.729 0 1.431-.286 2.862.286 4.292 1.429 3.434 1.715 6.868 2.858 10.302.858 3.434 3.145 6.581 3.145 10.301 0 .572.572 1.431.858 2.003 1.143 2.003 2.287 4.292 3.716 6.295 1.715 2.29 2.859 5.151 3.716 7.726.572 1.431 1.144 2.576 1.429 4.007.858 2.861 2.002 5.15 4.288 7.439 1.144 1.145 2.287 2.576 2.859 4.006 1.429 3.434 3.43 6.296 3.716 10.016.286 2.289 1.43 4.006 2.859 5.723.572.858 1.429 1.43 2.001 2.003 1.715 1.43 4.574 1.144 6.003-.859.286-.572.858-1.144 1.144-2.003.571-1.144 1.429-2.003 2.573-2.289 1.715-.572 2.286-1.717 2.572-3.148.572-1.717 1.716-3.433 3.717-4.292 1.143-.572 1.715-1.717 1.429-3.148 0-1.144-.286-2.289-.572-3.433-.286-1.431-.286-2.862.286-4.292.572-.859.858-1.717 1.144-2.576.857-2.003 1.143-4.006 0-6.295-.572-1.145-.572-2.289-.572-3.434v-7.726c0-1.717.857-2.575 2.573-2.861.571 0 1.715-.286 2.001-.859 1.429-2.003 3.43-2.575 5.431-3.434.858-.286 1.429-1.144 2.001-2.003.286-1.144.572-2.575 1.715-3.147 3.145-1.717 5.146-4.579 8.005-6.582 1.143-.858 2.001-2.003 2.858-3.147.858-1.431 2.287-2.576 3.145-4.006.857-.859 1.715-1.431 2.859-2.003 4.002-1.717 6.86-4.579 7.146-9.157 0-1.145 1.144-2.003 2.287-2.575 1.715-.859 3.716-1.145 5.717-1.145 4.574.286 8.862-.859 12.864-3.434 1.716-1.144 4.003-.858 5.432-2.289 0 0 1.143.286 1.143.572.572 1.431.858 2.576 1.43 4.006 1.429 4.579 4.002 8.585 9.147 10.874.572.286 1.43.572 2.001.858 1.144.573 1.43 1.431.858 2.862-.572 2.289-.286 2.861 2.001 3.72 1.429.572 2.573 1.431 3.431 2.575 0 .286.285.286.285.572 1.43 3.148 2.287 6.296 1.144 9.729a6.98 6.98 0 000 3.434c0 .859 1.429 2.289 2.573 2.289 2.858 0 5.431-.286 8.004-2.003 1.715-1.144 3.716-2.289 5.717-3.433.286-.287 1.144-.287 1.43 0 1.429 1.43 3.43 2.289 3.716 4.292.286 1.717.857 3.147 1.429 4.864 1.429 4.007 2.001 8.299 4.86 12.019.572.858.858 1.716 1.143 2.575.286.858.286 2.003.572 2.861 1.144 3.434 1.144 6.868.286 10.588-.286.858-.572 2.003-.286 2.861.858 2.576.286 5.151-.572 7.726-1.143 2.862-.571 5.151 2.573 6.296.286 0 .572.286.572.286 2.859 3.434 6.003 7.154 8.862 10.587 1.429 1.717 1.143 4.006 1.429 6.296 0 .572.286.858.572 1.43.857 1.145.857 2.576.857 4.006 0 1.431.572 2.862 1.716 4.006 1.715 1.431 3.144 3.148 3.716 5.151 0 .572.857 1.145 1.429 1.717.858.572 1.715 1.145 2.287 1.717 1.144 2.003 3.145 2.861 5.432 3.72a89.905 89.905 0 017.432 3.72l-.286.286h.572s-.286 0-.286-.286c.572-.286.858-.859 1.429-1.145.858-.572 1.144-1.431.858-2.575-.858-2.003-1.429-4.006-2.859-5.723-1.715-2.003-2.287-4.292-2.287-6.582v-4.292c0-1.717-.571-3.434-1.429-4.578-2.001-2.289-4.002-4.006-6.003-6.009-3.145-1.145-4.86-3.72-8.004-4.865-2.001-.858-3.431-2.575-3.431-5.151 0-1.43-.571-2.861-1.715-3.719-1.715-1.431-2.287-3.434-3.43-5.437-2.287-.286-3.431-1.717-3.717-3.72-.285-1.431-.285-2.862.286-4.292 1.716-5.151 3.717-10.302 4.002-16.025 0-.286.286-.572.286-.572.286-.286.858-.572 1.144-.572.571 0 1.143 0 1.429.286.286.286.572.858.858 1.144.286 2.576 2.001 3.72 4.574 3.72.857 0 1.715 0 2.286.287 2.573 1.716 5.718 2.861 7.147 6.009 1.715 3.433 5.146 5.723 8.004 8.298.572-.286 1.716-.858 2.001-.858 1.43.858 3.145 1.43 2.859 3.719v5.723c0 .573 1.429.859 2.001.573.286 0 .572-.286.572-.286 2.858-2.576 5.717-5.151 8.576-8.013.857-.572 1.429-1.43 2.287-1.716 4.002-.859 6.575-3.148 9.433-5.723 1.716-1.431 2.573-3.434 3.145-5.437.858-3.434 1.429-6.582 0-9.729v-.573c-.572-4.292-2.287-8.298-4.288-12.018a21.606 21.606 0 00-3.145-4.006c-2.572-2.575-5.431-4.292-8.29-6.009-2.001-1.145-3.716-2.575-4.002-4.864-.286-1.145-1.143-2.004-2.287-2.862-.857-.572-1.429-1.145-2.287-2.003-.286-.286-.857-.859-.857-1.145 0-2.575-.858-5.15 1.715-7.153 1.143-.859 2.001-2.29 2.001-3.72.286-.859.572-1.717 1.715-2.289 2.859-1.431 5.717-3.148 8.576-4.293.572-.286 1.429-.286 2.287-.286.858 0 1.429.572 2.001.572 1.715.287 3.145 1.145 3.431 3.148.285 1.431 1.143 2.575 2.572 3.434 1.144.858 3.145.286 3.431-1.145v-2.003l.286.286v-.286l-.286.286c-.286-.286-.572-.572-.572-1.144 0-.286.572-.859.858-.859 3.43-.572 6.575-2.289 9.719-3.433 2.859-.859 5.431-2.576 6.861-5.151.286-.859 1.143-.859 1.715-.286.858.572 1.715 1.144 2.859.572 2.001-.858 4.288-1.431 6.289-1.717 1.715-.286 3.43-.858 4.859-1.431 1.716-.572 3.145-1.43 3.717-3.147.286-.859.857-.859 1.715-1.431 8.576-5.723 12.578-11.732 13.15-20.316 0-1.145-.572-2.003 1.143-2.862 2.287-1.145 3.431-3.434 3.717-5.723.285-1.431.571-2.861 2.001-3.72 1.715-1.144 2.287-2.861 2.287-4.864 0-1.145.285-2.29.857-3.434 1.429-2.003.286-3.72-.857-5.151-.858-.858-1.716-1.717-2.859-2.289-.858-.572-1.715-.572-2.573-.572h-.572l.286-.286h.286c0-.573 0-1.431.572-1.717.857-.859 1.715-1.431 2.573-2.289.857-.573.857-1.717.285-2.576-.857-1.431-2.286-2.289-3.43-3.434h-.286l-.286-.286.572.286c.572 0 .858 0 1.144-.286 1.715-.858 2.001-2.289.857-3.434-.858-.858-1.715-1.716-2.573-2.289-3.43-1.717-6.003-7.726-7.718-11.159-.858-1.431-2.001-2.862-3.43-3.434-.858-.286-1.716-.859-2.573-1.431-2.001-1.145-2.573-2.575-2.573-4.865 0-1.43.286-2.861 1.143-4.006.858-.858 1.716-2.003 2.001-2.861.858-2.003 2.573-3.434 4.574-4.578 2.001-1.145 4.002-2.004 6.289-2.004.858 0 1.144-.858 1.43-1.43.286-.573.286-1.431.286-2.003 0-1.145-1.144-2.576-2.287-2.576h-3.717c-.857 0-2.001 0-2.858-.286-.858-.286-1.715-.858-2.573-1.43-.858-.573-2.001-.287-2.859.286-1.715.858-2.858 2.575-4.288 4.006-.571.572-1.143.858-2.001.858-1.143.286-2.573-.286-3.144-1.431-.858-1.716-1.716-3.147-4.002-4.006-2.287-.572-3.717-2.289-5.146-4.006-1.144-1.43-.286-4.292 1.715-4.578.858 0 1.43 0 2.287-.286 1.715 0 2.859-.859 3.43-2.289.858-2.862 1.144-5.723 4.574-6.868.858-.286 1.144-1.431 1.716-2.289.857-1.145 1.429-2.576 2.286-3.72.286-.572 1.144-.858 1.716-1.145 2.001-.572 3.43.573 4.574 1.717 1.143 1.145.571 2.289 0 3.148-.286.286-.572.858-.572 1.144-.858 1.431-1.144 3.148-.286 4.865.286.572.572 1.431.858 2.003.571 1.145-.286 1.717-.858 2.289-.286.286-.286.572-.286.572 0 .287 0 .859.286 1.145.286.286.858.286 1.429.286 1.715-.572 2.859-1.717 4.002-3.147 2.573-3.72 6.575-4.865 10.863-5.723.572 0 1.43.286 2.001.286.858.286 1.43.572 2.287.572 3.145.859 3.145.859 2.859 3.72v7.154c0 1.144.572 2.289 1.429 3.147.572.859 1.43 1.145 2.573.859.858-.286 1.429-.573 2.287-.573 1.429-.286 2.573 0 3.43.859l2.573 2.575c.858.859.572 1.431-.571 2.862-.858 1.144-1.144 1.717-.286 2.575 2.858 2.575 3.43 5.723 3.144 9.157 0 .858-.286 2.003-.286 2.861 0 2.003 1.43 3.434 2.287 5.151l.572.286c1.429-.286 2.287-.858 3.145-1.717 1.429-1.144 2.858-2.003 4.859-1.717h2.287c1.715.286 2.859-.858 3.716-2.003 2.001-2.289 2.573-5.15 1.43-8.012-.572-1.431-.858-2.861-1.144-4.006-1.715-5.437-1.715-5.723-5.717-9.729-1.429-1.717-3.145-3.148-4.002-5.151a9.04 9.04 0 00-4.002-4.006c-1.144-.858-2.573-1.717-3.717-2.575-1.143-.859-1.715-3.148-.857-4.578.572-.859 1.143-1.717 2.001-2.29 1.429-.858 2.573-2.289 3.716-3.433 2.859-3.148 4.002-6.296 2.573-10.302-1.144-2.861 0-5.723 2.287-7.726.857-.572 1.429-1.144 2.287-2.003l2.001-2.003c.857-1.144.858-2.861 2.573-3.434 2.001-.858 3.144 1.431 4.574 2.003 1.715.573 3.43.859 5.145 0 1.715-.858 3.145-1.716 4.288-2.861 2.001-2.289 3.431-4.865 4.574-7.44 1.715-4.292 4.288-8.012 5.146-12.59.285-.859.571-2.003 1.143-2.576 3.145-3.72 3.43-8.298 3.716-12.876.286-3.72 2.001-7.44 2.001-11.16 0-.572.286-1.431.572-2.003 1.715-2.289 1.144-4.865.858-7.726-.572-4.865-2.001-9.443-4.574-13.449-1.144-1.717-1.715-3.434-1.715-5.437 0-4.006-.286-8.012-.286-12.018 0-.286.286-.859.571-1.145.286 0 .572.286.572.286 1.715 2.29 3.431 4.006 5.432 6.009 2.001 2.004 1.429 4.865 2.858 7.44.572 1.145 1.144 2.003 1.716 3.148 1.429 2.575 2.286 5.151 2.572 8.298 0 .573 0 .859.286 1.431.858 3.148 1.144 6.581 3.716 9.157 1.144 1.144 1.716 3.147 1.716 4.578.286 2.575.857 4.578 2.001 6.868.857 1.43 1.143 3.147 1.143 4.864 0 .572 0 1.431.286 2.003.572 1.717 1.429 3.148 3.145 3.72.286 0 1.143-.286 1.143-.286v-2.861c0-1.431.858-2.004 2.287-1.717 1.715.286 2.573 1.43 4.002 2.003h.572c.286-.287.572-.859.572-1.145-.286-1.717-.858-3.434-2.573-4.292-3.145-1.431-4.002-4.865-6.575-6.582-.858-1.716-1.715-3.433-2.287-5.436-.572-2.29-.858-4.579-1.144-7.154v-2.003c3.431-9.157 12.579-3.148 8.291-10.015z" fill="#fff"/><path d="M495 30h534v693H495V30z" fill="#fff"/><path d="M265 402h711v321H265V402z" fill="#fff"/></svg>